<svg xmlns="http://www.w3.org/2000/svg" height="400" width="400" xml:space="preserve"><defs><linearGradient id="a" spreadMethod="pad" gradientTransform="scale(-898.994 898.994) rotate(14 -7.6 -7.478)" gradientUnits="userSpaceOnUse" y2="0" x2="1" y1="0" x1="0"><stop offset="0" style="stop-opacity:1;stop-color:#6bba62"/><stop offset="1" style="stop-opacity:1;stop-color:#9ae17a"/></linearGradient><linearGradient id="b" spreadMethod="pad" gradientTransform="scale(-1926.13 1926.13) rotate(40 -1.516 -1.246)" gradientUnits="userSpaceOnUse" y2="0" x2="1" y1="0" x1="0"><stop offset="0" style="stop-opacity:1;stop-color:#fff"/><stop offset="1" style="stop-opacity:1;stop-color:#fff"/></linearGradient></defs><path style="fill:none;fill-opacity:1;fill-rule:evenodd;stroke:none" d="M0 0h3000v3000H0V0" transform="matrix(.13333 0 0 -.13333 0 400)"/><path style="fill:url(#a);fill-opacity:1;fill-rule:evenodd;stroke:none" d="M1626.76 1483.59c16.6-38.5 42.79-75.06 74.19-108.47 62.6-66.65 145.47-120.41 215.13-152.83 65.64-30.52 118.45-51.9 154.13-65.42-43.06 63.83-128.93 178.46-227.15 240.71-65.71 41.63-133.91 68.26-192.89 81.39-8.01 1.79-15.82 3.32-23.41 4.62zm-15.33 145.8c25.14-12.57 50.62-22.97 76.66-31.27 61.04-19.45 125.67-27.57 197.27-25.33 145.16 4.53 220.08 109.58 292.49 211.1 40.86 57.29 80.99 113.55 132.84 152.88-71.45 11.64-214.1 28.14-352.6 4.36-94.95-16.29-195.93-72.56-265.36-151.89-40.75-46.56-70.45-101.04-81.3-159.85zm-4.18-62.46c-13.57 3.91-28.05 9.73-38.24 14.11-.01-13.23.83-26.63 2.61-40.16.56-4.23 1.23-8.46 2.01-12.66.13-.59.25-1.21.34-1.83 2.71-17.31 10.25-37.85 10.25-37.85 17.57-50.36 49.65-97.39 89.12-139.4 66.18-70.45 153.52-127.17 226.87-161.29 128.7-59.86 209.63-85.34 209.87-85.42l47.63-15.57-25.44 43.18c-.35.58-120.51 205.58-268.87 299.6-69.44 44-142.02 72.26-205.07 86.3-15.59 3.47-30.66 6.06-45.05 7.79a216.92 216.92 0 0 0-4.1 22.05c-.94 7.09-1.57 14.14-1.93 21.15zm-95.89 124.88c21.72-16.23 43.4-30.72 65.22-43.51 13.74 61.16 45.32 117.51 87.66 165.88 75.09 85.81 184.49 146.68 287.47 164.36 202.49 34.75 413.36-13.45 413.96-13.58l51.67-11.58-47.21-23.82c-65.37-33-112.84-99.55-161.41-167.64-77.76-109.04-158.23-221.86-322.31-226.98-75.8-2.37-144.52 6.32-209.75 27.1-23.65 7.54-46.79 16.64-69.59 27.35 0 0-24.06 11.59-36.8 18.85l-.61.33c-22.89 12.73-45.53 27.17-68.09 43.36-20.49-18.32-44.78-34.37-71.45-48.22a304.36 304.36 0 0 0-1.74-62.83c-.63-4.85-1.42-9.68-2.34-14.49 30.16.27 55.59-4.01 73.96-12.51 14.68 6.79 33.86 10.89 56.36 12.12 1.14-11.32 3.32-24.93 7.47-37.11-10.56-.27-20.1-1.27-28.44-2.98-20.1-2.59-35.39-17.74-35.39-17.74-34.88-32.42-47.43-97.3-47.43-171.32 0-101.5 23.95-218.13 47.43-296.77 23.49 78.64 47.44 195.27 47.44 296.77 0 62.43-8.92 118.36-32.65 153.79 12.03 8.75 25.25 14.01 34.04 16.84 26.48-42.72 36.61-103.82 36.61-170.63 0-132.46-39.46-290.15-67.77-362.819L1500 888.68l-17.66 45.351c-28.31 72.669-67.77 230.359-67.77 362.819 0 77.11 13.49 146.62 50.05 189.06-13.42 2.75-29.94 3.66-48.82 2.63-13.97-.41-42.55-4.95-42.55-4.95a477.1 477.1 0 0 1-23.4-4.62c-58.99-13.13-127.19-39.76-192.89-81.39-98.23-62.25-184.101-176.88-227.159-240.71 35.672 13.52 88.489 34.9 154.129 65.42 69.67 32.42 152.53 86.18 215.13 152.83 25.85 27.5 48.17 57.15 64.52 88.25 18.66 2.6 33.88 3.01 43.41 2.89-18.49-41.98-46.74-81.37-80.32-117.12-66.18-70.45-153.51-127.17-226.86-161.29-128.701-59.86-209.642-85.34-209.876-85.42l-47.633-15.57 25.441 43.18c.344.58 120.516 205.58 268.878 299.6 69.44 44 142.01 72.26 205.06 86.3 15.59 3.47 30.66 6.06 45.05 7.79 1.75 7.31 3.13 14.65 4.1 22.05 1.8 13.69 2.5 27.26 2.2 40.65 0 0-.26 28.46-3.84 39.54-10.31 60.12-40.38 115.81-81.91 163.27-69.43 79.33-170.41 135.6-265.36 151.89-138.498 23.78-281.143 7.28-352.6-4.36 51.856-39.33 91.981-95.59 132.844-152.88 72.406-101.53 147.328-206.57 292.486-211.1 62.94-1.97 143.85 8.23 218.06 31.84 13.14 4.17 26.04 8.76 38.58 13.78 1.16-7.49 2.28-18.66 1.89-32.76-.06-2.56-.17-4.95-.29-7.17-9.45-3.53-19.05-6.84-28.74-9.93-78.39-24.93-163.93-35.69-230.54-33.61-164.083 5.12-244.551 117.94-322.325 226.98-48.57 68.09-96.031 134.64-161.402 167.64l-47.223 23.82 51.676 11.58c.605.13 211.477 48.33 413.974 13.58 102.97-17.68 212.37-78.55 287.47-164.36 43.39-49.6 75.5-107.58 88.66-170.53 23.81 13.43 44.96 28.82 62.06 46.23l11.61 11.83 13.25-9.9" transform="matrix(.13333 0 0 -.13333 0 400)"/><path style="fill:url(#b);fill-opacity:1;fill-rule:evenodd;stroke:none" d="M1556.05 1829.72c-14.33-14.35-34.16-23.22-56.05-23.22-21.88 0-41.71 8.87-56.05 23.22-14.34 14.33-23.21 34.16-23.21 56.05 0 33.74 46.49 106.69 75.76 152.62l3.5 5.5 3.51-5.5c29.27-45.93 75.77-118.88 75.77-152.62 0-21.89-8.88-41.72-23.23-56.05zm-136.85-24.75c20.69-20.68 49.25-33.48 80.8-33.48 31.55 0 60.12 12.8 80.8 33.48 20.68 20.68 33.49 49.25 33.49 80.8 0 43.66-49.94 122.02-81.39 171.35-7.33 11.52-13.63 21.39-17.86 28.59l-15.04 25.61-15.03-25.61c-4.23-7.2-10.52-17.07-17.86-28.59-31.45-49.33-81.38-127.69-81.38-171.35 0-31.55 12.8-60.12 33.47-80.8" transform="matrix(.13333 0 0 -.13333 0 400)"/></svg>