<svg xmlns="http://www.w3.org/2000/svg" height="397.333" width="397.333" xml:space="preserve"><path style="fill:#fff;fill-opacity:1;fill-rule:nonzero;stroke:none" d="M1060 100h860v910c0 27.62 22.38 50 50 50h910v860h-910c-27.62 0-50 22.39-50 50v910h-860v-910c0-27.61-22.39-50-50-50H100v-860h910c27.61 0 50-22.38 50-50zM1970 0h-960c-27.613 0-50 22.379-50 50v910H50c-27.613 0-50 22.379-50 50v960c0 27.61 22.387 50 50 50h910v910c0 27.61 22.387 50 50 50h960c27.62 0 50-22.39 50-50v-910h910c27.62 0 50-22.39 50-50v-960c0-27.621-22.38-50-50-50h-910V50c0-27.621-22.38-50-50-50" transform="matrix(.13333 0 0 -.13333 0 397.333)"/><path style="fill:#fff;fill-opacity:1;fill-rule:nonzero;stroke:none" d="M2084 1143.17c230.94 61.87 378 215.99 378 215.99s-219.06 61.88-450 0c-166.8-44.69-317.14-105.7-432-143.99 119.9 96.34 345.57 178.09 468 323.99 189.14 225.42 216 504.01 216 504.01s-278.86-80.59-468-306.01c-145.28-173.13-176.27-365.9-270-486 36 270 144 382.12 144 630 0 367.83-180 666-180 666s-180-298.17-180-666c0-252.28 108.38-359.62 144-630-96.21 120.14-123.25 311.11-270 486-189.145 225.42-468 306.01-468 306.01s26.855-296.59 216-522.01c122.1-145.5 349.22-210.3 468-305.99-114.72 37.96-283.62 102.51-450 143.99-231.984 57.84-432 0-432 0S682.02 1201 914 1143.17c152.24-37.96 358.73 10.06 486 0-88.93-34.6-253.31-50.17-378.18-108.39C855.137 957.051 770 819.16 770 819.16s175.32-50.301 342 27.422c106.78 49.797 277.64 206.638 338 253.418V810c0-5.52 4.48-10 10-10h60c5.52 0 10 4.48 10 10v290c75.2-53.86 239.08-207.289 338-253.418 166.68-77.723 342-31.711 342-31.711s-85.14 142.188-251.82 219.909c-126.02 58.77-290 72.63-378.18 108.39 127.21 8.59 355.42-39.82 504 0" transform="matrix(.13333 0 0 -.13333 0 397.333)"/></svg>